<svg xmlns="http://www.w3.org/2000/svg" width="256" height="256" viewBox="0 0 256 256">
  <rect width="256" height="256" fill="#f7f1e6" />
  <g stroke="#d9cbb6" stroke-linecap="round" stroke-width="1" opacity="0.28">
    <line x1="37" y1="12" x2="171" y2="-9" opacity="0.53" />
    <line x1="32" y1="44" x2="147" y2="37" opacity="0.42" />
    <line x1="91" y1="119" x2="195" y2="126" opacity="0.74" />
    <line x1="259" y1="214" x2="327" y2="211" opacity="0.57" />
    <line x1="-17" y1="81" x2="112" y2="74" opacity="0.57" />
    <line x1="90" y1="172" x2="143" y2="156" opacity="0.46" />
    <line x1="156" y1="135" x2="299" y2="89" opacity="0.68" />
    <line x1="43" y1="193" x2="93" y2="194" opacity="0.90" />
    <line x1="165" y1="98" x2="295" y2="58" opacity="0.80" />
    <line x1="128" y1="40" x2="277" y2="12" opacity="0.46" />
    <line x1="122" y1="232" x2="243" y2="260" opacity="0.50" />
    <line x1="161" y1="107" x2="286" y2="86" opacity="0.96" />
    <line x1="16" y1="87" x2="124" y2="104" opacity="0.50" />
    <line x1="174" y1="138" x2="332" y2="153" opacity="0.73" />
    <line x1="146" y1="28" x2="215" y2="43" opacity="0.88" />
    <line x1="185" y1="137" x2="233" y2="127" opacity="0.97" />
    <line x1="141" y1="108" x2="264" y2="107" opacity="0.93" />
    <line x1="214" y1="73" x2="287" y2="54" opacity="0.85" />
    <line x1="255" y1="134" x2="390" y2="141" opacity="0.94" />
    <line x1="184" y1="185" x2="252" y2="208" opacity="0.48" />
    <line x1="232" y1="46" x2="368" y2="2" opacity="0.47" />
    <line x1="61" y1="216" x2="177" y2="180" opacity="0.63" />
    <line x1="219" y1="128" x2="329" y2="155" opacity="0.41" />
    <line x1="38" y1="136" x2="176" y2="149" opacity="0.47" />
    <line x1="202" y1="80" x2="300" y2="45" opacity="0.83" />
    <line x1="114" y1="256" x2="251" y2="225" opacity="0.95" />
    <line x1="132" y1="101" x2="191" y2="95" opacity="0.50" />
    <line x1="251" y1="0" x2="367" y2="-14" opacity="0.41" />
    <line x1="165" y1="157" x2="235" y2="135" opacity="0.93" />
    <line x1="20" y1="43" x2="153" y2="41" opacity="0.44" />
    <line x1="252" y1="64" x2="308" y2="70" opacity="0.97" />
    <line x1="64" y1="135" x2="171" y2="162" opacity="0.65" />
    <line x1="88" y1="102" x2="219" y2="84" opacity="1.00" />
    <line x1="171" y1="224" x2="326" y2="225" opacity="0.47" />
    <line x1="95" y1="32" x2="178" y2="4" opacity="0.73" />
    <line x1="92" y1="3" x2="141" y2="10" opacity="0.44" />
    <line x1="14" y1="16" x2="164" y2="-1" opacity="0.71" />
    <line x1="122" y1="248" x2="189" y2="249" opacity="0.83" />
    <line x1="272" y1="242" x2="343" y2="256" opacity="0.88" />
    <line x1="77" y1="48" x2="129" y2="53" opacity="0.61" />
    <line x1="190" y1="239" x2="340" y2="263" opacity="0.80" />
    <line x1="30" y1="31" x2="121" y2="45" opacity="0.88" />
    <line x1="35" y1="127" x2="99" y2="113" opacity="0.67" />
    <line x1="196" y1="93" x2="271" y2="91" opacity="0.92" />
    <line x1="18" y1="226" x2="161" y2="262" opacity="0.73" />
    <line x1="5" y1="7" x2="56" y2="22" opacity="0.91" />
    <line x1="65" y1="208" x2="167" y2="206" opacity="0.92" />
    <line x1="10" y1="84" x2="98" y2="53" opacity="0.63" />
    <line x1="212" y1="146" x2="306" y2="158" opacity="0.84" />
    <line x1="264" y1="249" x2="323" y2="236" opacity="0.53" />
    <line x1="9" y1="31" x2="144" y2="13" opacity="0.43" />
    <line x1="224" y1="80" x2="271" y2="95" opacity="0.45" />
    <line x1="75" y1="35" x2="191" y2="0" opacity="0.92" />
    <line x1="186" y1="61" x2="346" y2="104" opacity="0.55" />
    <line x1="0" y1="41" x2="93" y2="51" opacity="0.74" />
    <line x1="141" y1="133" x2="207" y2="140" opacity="0.59" />
    <line x1="115" y1="202" x2="171" y2="208" opacity="0.58" />
    <line x1="141" y1="37" x2="182" y2="35" opacity="1.00" />
    <line x1="31" y1="37" x2="139" y2="15" opacity="0.56" />
    <line x1="158" y1="35" x2="310" y2="7" opacity="0.57" />
  </g>
  <g fill="#cdbfa9" opacity="0.25">
    <circle cx="224" cy="154" r="1.33" opacity="0.99" />
    <circle cx="4" cy="153" r="1.72" opacity="0.46" />
    <circle cx="68" cy="135" r="0.74" opacity="0.46" />
    <circle cx="79" cy="139" r="0.94" opacity="0.53" />
    <circle cx="175" cy="104" r="1.42" opacity="0.91" />
    <circle cx="250" cy="128" r="1.69" opacity="0.91" />
    <circle cx="47" cy="216" r="1.60" opacity="0.43" />
    <circle cx="170" cy="66" r="1.36" opacity="0.56" />
    <circle cx="226" cy="218" r="1.27" opacity="0.47" />
    <circle cx="76" cy="18" r="1.60" opacity="0.75" />
    <circle cx="75" cy="220" r="0.75" opacity="0.58" />
    <circle cx="20" cy="183" r="0.85" opacity="0.55" />
    <circle cx="52" cy="181" r="1.54" opacity="0.93" />
    <circle cx="208" cy="79" r="1.71" opacity="0.54" />
    <circle cx="83" cy="90" r="1.66" opacity="0.41" />
    <circle cx="170" cy="210" r="1.56" opacity="0.92" />
    <circle cx="127" cy="136" r="0.79" opacity="0.82" />
    <circle cx="195" cy="19" r="1.63" opacity="0.53" />
    <circle cx="235" cy="179" r="0.97" opacity="0.88" />
    <circle cx="116" cy="114" r="0.63" opacity="0.52" />
    <circle cx="168" cy="142" r="1.64" opacity="0.98" />
    <circle cx="142" cy="179" r="1.37" opacity="0.64" />
    <circle cx="169" cy="14" r="0.74" opacity="0.98" />
    <circle cx="91" cy="135" r="0.65" opacity="0.76" />
    <circle cx="176" cy="160" r="1.12" opacity="0.99" />
    <circle cx="59" cy="197" r="1.68" opacity="0.51" />
    <circle cx="22" cy="223" r="0.60" opacity="0.96" />
    <circle cx="100" cy="186" r="1.12" opacity="0.97" />
    <circle cx="169" cy="160" r="1.40" opacity="0.47" />
    <circle cx="153" cy="158" r="1.40" opacity="0.60" />
    <circle cx="151" cy="65" r="0.83" opacity="0.80" />
    <circle cx="194" cy="89" r="1.34" opacity="0.58" />
    <circle cx="0" cy="155" r="0.94" opacity="0.66" />
    <circle cx="164" cy="238" r="1.13" opacity="0.81" />
    <circle cx="242" cy="86" r="1.39" opacity="0.57" />
    <circle cx="171" cy="47" r="1.58" opacity="0.85" />
    <circle cx="158" cy="115" r="1.57" opacity="0.49" />
    <circle cx="23" cy="125" r="1.78" opacity="0.77" />
    <circle cx="37" cy="233" r="1.10" opacity="0.78" />
    <circle cx="99" cy="196" r="1.19" opacity="0.55" />
    <circle cx="2" cy="54" r="1.53" opacity="0.53" />
    <circle cx="237" cy="25" r="1.27" opacity="0.95" />
    <circle cx="62" cy="233" r="0.76" opacity="0.68" />
    <circle cx="162" cy="226" r="1.34" opacity="0.83" />
    <circle cx="218" cy="228" r="1.68" opacity="0.85" />
    <circle cx="243" cy="230" r="0.91" opacity="0.55" />
    <circle cx="141" cy="248" r="1.35" opacity="0.56" />
    <circle cx="39" cy="146" r="0.88" opacity="0.60" />
    <circle cx="41" cy="70" r="0.78" opacity="0.63" />
    <circle cx="78" cy="109" r="0.68" opacity="0.64" />
    <circle cx="238" cy="212" r="0.67" opacity="0.90" />
    <circle cx="199" cy="10" r="1.63" opacity="0.86" />
    <circle cx="194" cy="244" r="0.61" opacity="0.61" />
    <circle cx="199" cy="214" r="1.25" opacity="0.84" />
    <circle cx="112" cy="249" r="0.86" opacity="0.66" />
    <circle cx="14" cy="199" r="1.00" opacity="0.81" />
    <circle cx="207" cy="84" r="1.61" opacity="0.95" />
    <circle cx="13" cy="201" r="1.31" opacity="0.80" />
    <circle cx="42" cy="219" r="0.76" opacity="0.68" />
    <circle cx="25" cy="133" r="1.05" opacity="0.53" />
    <circle cx="167" cy="172" r="1.51" opacity="0.63" />
    <circle cx="215" cy="129" r="1.60" opacity="0.68" />
    <circle cx="26" cy="179" r="0.87" opacity="0.44" />
    <circle cx="20" cy="15" r="1.74" opacity="0.52" />
    <circle cx="10" cy="78" r="0.89" opacity="0.68" />
    <circle cx="58" cy="111" r="1.16" opacity="0.55" />
    <circle cx="188" cy="85" r="1.33" opacity="0.98" />
    <circle cx="58" cy="83" r="1.76" opacity="0.46" />
    <circle cx="13" cy="159" r="1.29" opacity="0.94" />
    <circle cx="192" cy="203" r="1.73" opacity="0.52" />
    <circle cx="124" cy="52" r="1.44" opacity="0.58" />
    <circle cx="61" cy="21" r="1.02" opacity="0.66" />
    <circle cx="189" cy="35" r="1.21" opacity="0.60" />
    <circle cx="215" cy="250" r="0.73" opacity="0.98" />
    <circle cx="235" cy="78" r="1.12" opacity="0.84" />
    <circle cx="138" cy="247" r="1.16" opacity="0.90" />
    <circle cx="137" cy="165" r="1.62" opacity="0.90" />
    <circle cx="44" cy="142" r="1.66" opacity="0.55" />
    <circle cx="237" cy="194" r="1.00" opacity="0.70" />
    <circle cx="166" cy="93" r="1.19" opacity="0.61" />
    <circle cx="132" cy="174" r="0.94" opacity="0.76" />
    <circle cx="141" cy="5" r="1.22" opacity="0.51" />
    <circle cx="123" cy="208" r="1.19" opacity="0.85" />
    <circle cx="243" cy="251" r="1.14" opacity="0.41" />
    <circle cx="150" cy="113" r="1.09" opacity="0.55" />
    <circle cx="188" cy="242" r="1.26" opacity="0.61" />
    <circle cx="169" cy="180" r="1.44" opacity="0.56" />
    <circle cx="128" cy="118" r="0.74" opacity="0.52" />
    <circle cx="61" cy="94" r="0.83" opacity="0.84" />
    <circle cx="141" cy="144" r="1.78" opacity="0.90" />
    <circle cx="151" cy="116" r="1.03" opacity="0.58" />
    <circle cx="64" cy="140" r="0.65" opacity="0.43" />
    <circle cx="149" cy="64" r="1.37" opacity="0.85" />
    <circle cx="52" cy="6" r="1.29" opacity="0.68" />
    <circle cx="225" cy="174" r="0.82" opacity="0.43" />
    <circle cx="244" cy="58" r="1.59" opacity="0.64" />
    <circle cx="37" cy="27" r="0.78" opacity="0.89" />
    <circle cx="155" cy="43" r="1.79" opacity="0.47" />
    <circle cx="213" cy="115" r="1.53" opacity="0.63" />
    <circle cx="226" cy="152" r="1.63" opacity="0.99" />
    <circle cx="156" cy="30" r="1.33" opacity="0.84" />
    <circle cx="106" cy="108" r="0.92" opacity="0.45" />
    <circle cx="122" cy="88" r="1.26" opacity="0.49" />
    <circle cx="209" cy="230" r="1.43" opacity="0.68" />
    <circle cx="16" cy="118" r="0.95" opacity="0.57" />
    <circle cx="232" cy="36" r="1.42" opacity="0.95" />
    <circle cx="101" cy="217" r="0.74" opacity="0.53" />
    <circle cx="76" cy="136" r="1.59" opacity="0.44" />
    <circle cx="84" cy="157" r="1.31" opacity="0.89" />
    <circle cx="147" cy="224" r="0.75" opacity="0.81" />
    <circle cx="206" cy="139" r="1.20" opacity="0.70" />
    <circle cx="41" cy="20" r="1.67" opacity="0.84" />
    <circle cx="128" cy="13" r="0.71" opacity="0.98" />
    <circle cx="10" cy="137" r="1.29" opacity="0.86" />
    <circle cx="89" cy="240" r="1.22" opacity="0.67" />
    <circle cx="142" cy="92" r="1.80" opacity="0.66" />
    <circle cx="251" cy="46" r="1.16" opacity="0.65" />
    <circle cx="164" cy="53" r="1.63" opacity="0.60" />
    <circle cx="253" cy="147" r="1.40" opacity="0.64" />
    <circle cx="18" cy="232" r="0.71" opacity="0.55" />
  </g>
</svg>