<svg xmlns="http://www.w3.org/2000/svg" width="256" height="256" viewBox="0 0 256 256">
  <rect width="256" height="256" fill="#f4ede2" />
  <g stroke="#d4c6b0" stroke-linecap="round" stroke-width="1" opacity="0.22">
    <line x1="39" y1="206" x2="189" y2="207" opacity="0.99" />
    <line x1="257" y1="236" x2="349" y2="207" opacity="0.71" />
    <line x1="235" y1="226" x2="372" y2="182" opacity="0.56" />
    <line x1="47" y1="147" x2="143" y2="172" opacity="0.69" />
    <line x1="-6" y1="122" x2="124" y2="90" opacity="0.73" />
    <line x1="262" y1="208" x2="313" y2="198" opacity="0.90" />
    <line x1="38" y1="236" x2="93" y2="241" opacity="0.49" />
    <line x1="129" y1="139" x2="222" y2="160" opacity="0.99" />
    <line x1="104" y1="233" x2="214" y2="205" opacity="0.51" />
    <line x1="240" y1="69" x2="390" y2="23" opacity="0.86" />
    <line x1="192" y1="174" x2="351" y2="206" opacity="0.56" />
    <line x1="-19" y1="144" x2="113" y2="125" opacity="0.75" />
    <line x1="230" y1="76" x2="327" y2="78" opacity="0.61" />
    <line x1="262" y1="193" x2="360" y2="222" opacity="0.92" />
    <line x1="102" y1="196" x2="171" y2="213" opacity="0.65" />
    <line x1="142" y1="242" x2="272" y2="279" opacity="0.63" />
    <line x1="57" y1="253" x2="101" y2="241" opacity="0.98" />
    <line x1="149" y1="51" x2="300" y2="87" opacity="0.46" />
    <line x1="213" y1="7" x2="345" y2="-25" opacity="0.92" />
    <line x1="59" y1="38" x2="159" y2="57" opacity="0.56" />
    <line x1="183" y1="41" x2="332" y2="23" opacity="0.80" />
    <line x1="253" y1="194" x2="333" y2="201" opacity="0.93" />
    <line x1="229" y1="18" x2="348" y2="-17" opacity="0.78" />
    <line x1="127" y1="116" x2="262" y2="77" opacity="0.99" />
    <line x1="31" y1="227" x2="92" y2="235" opacity="0.94" />
    <line x1="3" y1="166" x2="144" y2="122" opacity="0.62" />
    <line x1="200" y1="74" x2="271" y2="75" opacity="0.74" />
    <line x1="72" y1="87" x2="134" y2="68" opacity="0.92" />
    <line x1="103" y1="254" x2="259" y2="263" opacity="0.54" />
    <line x1="110" y1="235" x2="182" y2="243" opacity="0.94" />
    <line x1="218" y1="147" x2="344" y2="151" opacity="0.44" />
    <line x1="156" y1="153" x2="277" y2="192" opacity="0.81" />
    <line x1="213" y1="154" x2="278" y2="176" opacity="0.91" />
    <line x1="34" y1="121" x2="122" y2="125" opacity="0.74" />
    <line x1="131" y1="11" x2="277" y2="27" opacity="0.56" />
    <line x1="269" y1="25" x2="425" y2="36" opacity="0.70" />
    <line x1="126" y1="117" x2="243" y2="141" opacity="0.53" />
    <line x1="77" y1="128" x2="203" y2="150" opacity="0.86" />
    <line x1="50" y1="49" x2="205" y2="62" opacity="0.42" />
    <line x1="205" y1="17" x2="319" y2="6" opacity="0.48" />
    <line x1="131" y1="167" x2="266" y2="159" opacity="0.52" />
    <line x1="256" y1="187" x2="363" y2="187" opacity="0.56" />
    <line x1="64" y1="131" x2="220" y2="166" opacity="0.69" />
    <line x1="131" y1="173" x2="273" y2="134" opacity="0.98" />
    <line x1="52" y1="115" x2="202" y2="133" opacity="0.80" />
    <line x1="183" y1="187" x2="234" y2="197" opacity="0.41" />
    <line x1="254" y1="63" x2="352" y2="53" opacity="0.85" />
    <line x1="114" y1="195" x2="259" y2="209" opacity="0.62" />
    <line x1="99" y1="241" x2="142" y2="244" opacity="0.97" />
    <line x1="147" y1="113" x2="269" y2="75" opacity="0.89" />
    <line x1="134" y1="209" x2="188" y2="195" opacity="0.97" />
    <line x1="135" y1="252" x2="189" y2="236" opacity="0.93" />
    <line x1="49" y1="198" x2="147" y2="189" opacity="0.97" />
    <line x1="256" y1="214" x2="371" y2="233" opacity="0.49" />
    <line x1="192" y1="50" x2="338" y2="48" opacity="0.64" />
    <line x1="123" y1="16" x2="251" y2="4" opacity="0.67" />
    <line x1="100" y1="185" x2="152" y2="202" opacity="0.62" />
    <line x1="163" y1="31" x2="253" y2="16" opacity="0.98" />
    <line x1="212" y1="46" x2="336" y2="21" opacity="0.78" />
    <line x1="-10" y1="25" x2="130" y2="8" opacity="0.99" />
  </g>
  <g fill="#c8b89f" opacity="0.18">
    <circle cx="105" cy="35" r="1.60" opacity="0.73" />
    <circle cx="110" cy="119" r="0.99" opacity="0.49" />
    <circle cx="1" cy="141" r="1.63" opacity="0.49" />
    <circle cx="66" cy="128" r="1.56" opacity="0.47" />
    <circle cx="13" cy="67" r="0.62" opacity="0.87" />
    <circle cx="121" cy="165" r="0.62" opacity="0.56" />
    <circle cx="64" cy="215" r="1.23" opacity="0.85" />
    <circle cx="243" cy="229" r="1.53" opacity="0.71" />
    <circle cx="55" cy="231" r="1.20" opacity="0.97" />
    <circle cx="22" cy="154" r="1.15" opacity="0.98" />
    <circle cx="31" cy="245" r="1.62" opacity="0.66" />
    <circle cx="55" cy="251" r="1.45" opacity="0.67" />
    <circle cx="41" cy="164" r="1.33" opacity="0.44" />
    <circle cx="140" cy="166" r="1.06" opacity="0.76" />
    <circle cx="150" cy="232" r="1.21" opacity="0.66" />
    <circle cx="58" cy="110" r="1.12" opacity="0.93" />
    <circle cx="211" cy="173" r="1.59" opacity="0.64" />
    <circle cx="48" cy="160" r="1.11" opacity="0.80" />
    <circle cx="191" cy="78" r="1.42" opacity="0.68" />
    <circle cx="46" cy="43" r="0.71" opacity="0.46" />
    <circle cx="190" cy="66" r="1.27" opacity="0.75" />
    <circle cx="168" cy="62" r="1.09" opacity="0.92" />
    <circle cx="216" cy="26" r="1.76" opacity="0.76" />
    <circle cx="180" cy="53" r="1.29" opacity="0.53" />
    <circle cx="246" cy="114" r="1.62" opacity="0.61" />
    <circle cx="188" cy="58" r="1.52" opacity="0.74" />
    <circle cx="219" cy="13" r="1.33" opacity="0.79" />
    <circle cx="136" cy="14" r="0.82" opacity="0.82" />
    <circle cx="158" cy="173" r="1.02" opacity="0.51" />
    <circle cx="73" cy="205" r="0.68" opacity="0.84" />
    <circle cx="15" cy="46" r="1.50" opacity="0.53" />
    <circle cx="214" cy="232" r="1.01" opacity="0.62" />
    <circle cx="166" cy="43" r="1.66" opacity="0.49" />
    <circle cx="25" cy="41" r="0.93" opacity="0.80" />
    <circle cx="248" cy="226" r="1.10" opacity="0.53" />
    <circle cx="58" cy="176" r="1.12" opacity="0.57" />
    <circle cx="249" cy="157" r="0.65" opacity="0.64" />
    <circle cx="28" cy="3" r="0.85" opacity="0.97" />
    <circle cx="70" cy="130" r="0.95" opacity="0.47" />
    <circle cx="254" cy="220" r="0.81" opacity="0.63" />
    <circle cx="117" cy="256" r="1.27" opacity="0.80" />
    <circle cx="181" cy="36" r="1.08" opacity="0.85" />
    <circle cx="223" cy="9" r="1.15" opacity="0.45" />
    <circle cx="160" cy="219" r="1.29" opacity="0.83" />
    <circle cx="213" cy="148" r="0.74" opacity="0.41" />
    <circle cx="166" cy="87" r="1.56" opacity="0.77" />
    <circle cx="185" cy="45" r="1.12" opacity="0.46" />
    <circle cx="223" cy="205" r="1.23" opacity="0.64" />
    <circle cx="158" cy="173" r="0.87" opacity="0.87" />
    <circle cx="39" cy="58" r="1.24" opacity="0.52" />
    <circle cx="178" cy="179" r="1.47" opacity="0.89" />
    <circle cx="75" cy="120" r="0.72" opacity="0.55" />
    <circle cx="88" cy="78" r="1.51" opacity="0.79" />
    <circle cx="90" cy="252" r="1.16" opacity="0.74" />
    <circle cx="229" cy="165" r="1.64" opacity="0.78" />
    <circle cx="77" cy="225" r="0.68" opacity="0.67" />
    <circle cx="155" cy="140" r="1.31" opacity="0.61" />
    <circle cx="37" cy="158" r="1.15" opacity="0.42" />
    <circle cx="188" cy="146" r="0.69" opacity="0.92" />
    <circle cx="46" cy="196" r="1.16" opacity="0.73" />
    <circle cx="21" cy="230" r="1.69" opacity="0.74" />
    <circle cx="96" cy="164" r="1.33" opacity="0.70" />
    <circle cx="31" cy="230" r="0.72" opacity="0.94" />
    <circle cx="175" cy="43" r="1.21" opacity="0.50" />
    <circle cx="126" cy="224" r="1.79" opacity="0.71" />
    <circle cx="81" cy="186" r="1.05" opacity="0.57" />
    <circle cx="209" cy="173" r="1.41" opacity="0.43" />
    <circle cx="171" cy="33" r="1.00" opacity="0.73" />
    <circle cx="197" cy="145" r="0.90" opacity="0.91" />
    <circle cx="76" cy="170" r="0.70" opacity="0.80" />
    <circle cx="179" cy="158" r="1.76" opacity="0.82" />
    <circle cx="200" cy="66" r="1.31" opacity="0.96" />
    <circle cx="158" cy="192" r="1.37" opacity="0.60" />
    <circle cx="65" cy="47" r="1.38" opacity="0.65" />
    <circle cx="185" cy="9" r="1.04" opacity="0.51" />
    <circle cx="109" cy="174" r="1.74" opacity="0.69" />
    <circle cx="115" cy="70" r="0.79" opacity="0.58" />
    <circle cx="51" cy="19" r="1.39" opacity="0.93" />
    <circle cx="67" cy="192" r="0.79" opacity="0.51" />
    <circle cx="84" cy="224" r="0.65" opacity="0.62" />
    <circle cx="121" cy="227" r="1.33" opacity="0.85" />
    <circle cx="229" cy="119" r="1.24" opacity="0.59" />
    <circle cx="240" cy="99" r="1.04" opacity="0.97" />
    <circle cx="225" cy="236" r="1.52" opacity="0.87" />
    <circle cx="214" cy="82" r="1.58" opacity="0.88" />
    <circle cx="70" cy="128" r="0.66" opacity="0.69" />
    <circle cx="190" cy="52" r="1.45" opacity="0.71" />
    <circle cx="63" cy="145" r="0.70" opacity="0.50" />
    <circle cx="230" cy="75" r="1.60" opacity="0.46" />
    <circle cx="113" cy="230" r="1.66" opacity="0.96" />
    <circle cx="212" cy="27" r="1.08" opacity="0.62" />
    <circle cx="197" cy="41" r="1.05" opacity="0.42" />
    <circle cx="50" cy="171" r="1.55" opacity="0.48" />
    <circle cx="146" cy="241" r="1.44" opacity="0.48" />
    <circle cx="240" cy="229" r="1.34" opacity="0.94" />
    <circle cx="9" cy="131" r="0.86" opacity="0.49" />
    <circle cx="216" cy="56" r="1.53" opacity="0.54" />
    <circle cx="62" cy="24" r="0.89" opacity="0.78" />
    <circle cx="234" cy="32" r="0.73" opacity="0.94" />
    <circle cx="8" cy="123" r="1.46" opacity="0.57" />
    <circle cx="0" cy="180" r="0.89" opacity="0.65" />
    <circle cx="43" cy="184" r="0.68" opacity="0.72" />
    <circle cx="10" cy="199" r="1.65" opacity="0.43" />
    <circle cx="198" cy="191" r="0.90" opacity="0.41" />
    <circle cx="34" cy="176" r="0.89" opacity="0.79" />
    <circle cx="53" cy="170" r="0.76" opacity="0.61" />
    <circle cx="173" cy="89" r="1.60" opacity="0.81" />
    <circle cx="245" cy="93" r="1.57" opacity="0.44" />
    <circle cx="234" cy="18" r="0.95" opacity="0.43" />
    <circle cx="102" cy="21" r="0.98" opacity="0.59" />
    <circle cx="203" cy="242" r="0.90" opacity="0.85" />
    <circle cx="97" cy="146" r="1.03" opacity="0.87" />
    <circle cx="169" cy="139" r="0.75" opacity="0.62" />
    <circle cx="204" cy="225" r="1.67" opacity="0.63" />
    <circle cx="95" cy="254" r="1.43" opacity="0.62" />
    <circle cx="136" cy="42" r="1.47" opacity="0.45" />
    <circle cx="92" cy="150" r="0.99" opacity="0.45" />
    <circle cx="151" cy="156" r="1.14" opacity="0.83" />
    <circle cx="85" cy="227" r="1.02" opacity="0.43" />
    <circle cx="180" cy="222" r="0.93" opacity="0.99" />
  </g>
</svg>