<svg xmlns="http://www.w3.org/2000/svg" width="256" height="256" viewBox="0 0 256 256">
  <rect width="256" height="256" fill="#f2e9da" />
  <g stroke="#d0c2ac" stroke-linecap="round" stroke-width="1" opacity="0.12">
    <line x1="9" y1="38" x2="134" y2="50" opacity="0.62" />
    <line x1="61" y1="15" x2="119" y2="29" opacity="0.81" />
    <line x1="204" y1="17" x2="260" y2="0" opacity="0.87" />
    <line x1="167" y1="185" x2="256" y2="213" opacity="0.42" />
    <line x1="58" y1="230" x2="145" y2="222" opacity="0.86" />
    <line x1="273" y1="70" x2="380" y2="60" opacity="0.59" />
    <line x1="122" y1="127" x2="176" y2="109" opacity="0.51" />
    <line x1="245" y1="198" x2="401" y2="204" opacity="0.56" />
    <line x1="113" y1="228" x2="180" y2="251" opacity="0.57" />
    <line x1="231" y1="102" x2="286" y2="87" opacity="0.44" />
    <line x1="68" y1="227" x2="119" y2="238" opacity="0.98" />
    <line x1="143" y1="177" x2="273" y2="137" opacity="0.73" />
    <line x1="133" y1="80" x2="264" y2="99" opacity="0.82" />
    <line x1="69" y1="185" x2="174" y2="164" opacity="0.99" />
    <line x1="51" y1="121" x2="192" y2="120" opacity="0.62" />
    <line x1="273" y1="188" x2="372" y2="209" opacity="0.73" />
    <line x1="24" y1="33" x2="103" y2="27" opacity="0.83" />
    <line x1="225" y1="210" x2="363" y2="201" opacity="0.74" />
    <line x1="44" y1="162" x2="166" y2="125" opacity="0.68" />
    <line x1="244" y1="176" x2="300" y2="190" opacity="0.87" />
    <line x1="73" y1="66" x2="168" y2="66" opacity="0.92" />
    <line x1="43" y1="78" x2="121" y2="59" opacity="0.59" />
    <line x1="95" y1="177" x2="255" y2="179" opacity="0.57" />
    <line x1="20" y1="128" x2="85" y2="134" opacity="0.73" />
    <line x1="44" y1="155" x2="162" y2="157" opacity="0.70" />
    <line x1="66" y1="78" x2="127" y2="84" opacity="0.83" />
    <line x1="152" y1="21" x2="297" y2="57" opacity="0.45" />
    <line x1="275" y1="135" x2="398" y2="110" opacity="0.74" />
    <line x1="-5" y1="254" x2="148" y2="267" opacity="0.57" />
    <line x1="134" y1="247" x2="205" y2="262" opacity="0.81" />
    <line x1="132" y1="232" x2="181" y2="238" opacity="0.49" />
    <line x1="192" y1="247" x2="291" y2="226" opacity="0.76" />
    <line x1="140" y1="163" x2="273" y2="208" opacity="0.61" />
    <line x1="184" y1="66" x2="321" y2="53" opacity="0.74" />
    <line x1="143" y1="123" x2="242" y2="96" opacity="0.67" />
    <line x1="52" y1="49" x2="98" y2="42" opacity="0.63" />
    <line x1="194" y1="127" x2="344" y2="169" opacity="0.89" />
    <line x1="275" y1="160" x2="339" y2="171" opacity="0.70" />
    <line x1="243" y1="239" x2="346" y2="266" opacity="0.70" />
    <line x1="26" y1="201" x2="130" y2="197" opacity="0.54" />
    <line x1="160" y1="24" x2="206" y2="16" opacity="0.76" />
    <line x1="220" y1="146" x2="328" y2="108" opacity="0.46" />
    <line x1="48" y1="135" x2="181" y2="122" opacity="0.64" />
    <line x1="3" y1="205" x2="49" y2="207" opacity="0.52" />
    <line x1="263" y1="147" x2="312" y2="143" opacity="0.67" />
    <line x1="261" y1="143" x2="406" y2="192" opacity="0.81" />
    <line x1="40" y1="65" x2="92" y2="61" opacity="0.88" />
    <line x1="153" y1="187" x2="289" y2="153" opacity="0.76" />
    <line x1="185" y1="256" x2="230" y2="241" opacity="0.48" />
    <line x1="150" y1="242" x2="256" y2="238" opacity="0.76" />
    <line x1="243" y1="71" x2="324" y2="95" opacity="0.59" />
    <line x1="181" y1="153" x2="296" y2="139" opacity="0.90" />
    <line x1="252" y1="250" x2="382" y2="255" opacity="0.68" />
    <line x1="-12" y1="188" x2="70" y2="197" opacity="0.99" />
    <line x1="137" y1="13" x2="253" y2="10" opacity="0.98" />
    <line x1="276" y1="116" x2="408" y2="74" opacity="0.69" />
    <line x1="248" y1="194" x2="306" y2="207" opacity="0.55" />
    <line x1="273" y1="56" x2="337" y2="34" opacity="0.59" />
    <line x1="57" y1="211" x2="185" y2="184" opacity="0.70" />
    <line x1="221" y1="31" x2="351" y2="-1" opacity="0.52" />
  </g>
  <g fill="#bda98e" opacity="0.35">
    <circle cx="166" cy="244" r="1.23" opacity="0.59" />
    <circle cx="88" cy="235" r="1.69" opacity="0.61" />
    <circle cx="181" cy="135" r="1.33" opacity="0.52" />
    <circle cx="126" cy="142" r="1.27" opacity="0.53" />
    <circle cx="152" cy="147" r="1.45" opacity="0.81" />
    <circle cx="250" cy="162" r="1.18" opacity="0.74" />
    <circle cx="140" cy="147" r="0.75" opacity="0.81" />
    <circle cx="194" cy="202" r="1.58" opacity="0.97" />
    <circle cx="74" cy="148" r="0.65" opacity="0.97" />
    <circle cx="40" cy="177" r="1.71" opacity="0.79" />
    <circle cx="245" cy="109" r="0.84" opacity="0.72" />
    <circle cx="139" cy="70" r="0.73" opacity="0.84" />
    <circle cx="122" cy="124" r="0.66" opacity="0.94" />
    <circle cx="115" cy="119" r="0.66" opacity="0.65" />
    <circle cx="241" cy="51" r="1.42" opacity="0.48" />
    <circle cx="80" cy="208" r="1.38" opacity="0.93" />
    <circle cx="243" cy="244" r="1.38" opacity="0.85" />
    <circle cx="147" cy="164" r="0.94" opacity="0.44" />
    <circle cx="45" cy="118" r="1.24" opacity="0.83" />
    <circle cx="19" cy="89" r="1.10" opacity="0.90" />
    <circle cx="18" cy="203" r="1.55" opacity="0.51" />
    <circle cx="148" cy="19" r="0.61" opacity="0.74" />
    <circle cx="54" cy="171" r="0.94" opacity="0.99" />
    <circle cx="252" cy="68" r="1.62" opacity="0.68" />
    <circle cx="98" cy="57" r="1.00" opacity="0.84" />
    <circle cx="131" cy="95" r="0.62" opacity="0.60" />
    <circle cx="151" cy="98" r="0.81" opacity="0.91" />
    <circle cx="207" cy="218" r="1.22" opacity="0.45" />
    <circle cx="48" cy="94" r="1.78" opacity="0.69" />
    <circle cx="127" cy="3" r="0.91" opacity="0.54" />
    <circle cx="136" cy="168" r="0.96" opacity="0.83" />
    <circle cx="5" cy="133" r="1.38" opacity="0.82" />
    <circle cx="31" cy="60" r="1.16" opacity="0.50" />
    <circle cx="159" cy="60" r="1.37" opacity="0.96" />
    <circle cx="188" cy="113" r="0.86" opacity="0.48" />
    <circle cx="78" cy="232" r="1.50" opacity="0.76" />
    <circle cx="212" cy="241" r="1.51" opacity="0.88" />
    <circle cx="111" cy="126" r="1.42" opacity="0.76" />
    <circle cx="41" cy="228" r="1.23" opacity="0.62" />
    <circle cx="57" cy="31" r="1.59" opacity="0.94" />
    <circle cx="103" cy="76" r="0.80" opacity="0.91" />
    <circle cx="226" cy="59" r="1.42" opacity="0.83" />
    <circle cx="250" cy="46" r="1.68" opacity="0.67" />
    <circle cx="28" cy="232" r="0.76" opacity="0.65" />
    <circle cx="29" cy="236" r="1.41" opacity="0.58" />
    <circle cx="11" cy="202" r="0.91" opacity="0.40" />
    <circle cx="111" cy="37" r="0.65" opacity="0.61" />
    <circle cx="32" cy="30" r="1.72" opacity="0.44" />
    <circle cx="241" cy="16" r="0.94" opacity="0.51" />
    <circle cx="69" cy="215" r="1.05" opacity="0.93" />
    <circle cx="229" cy="193" r="1.05" opacity="0.81" />
    <circle cx="68" cy="178" r="0.74" opacity="1.00" />
    <circle cx="201" cy="65" r="1.47" opacity="0.53" />
    <circle cx="1" cy="11" r="1.77" opacity="0.68" />
    <circle cx="217" cy="194" r="1.59" opacity="0.55" />
    <circle cx="177" cy="79" r="0.93" opacity="0.96" />
    <circle cx="57" cy="16" r="1.57" opacity="0.65" />
    <circle cx="8" cy="123" r="0.85" opacity="0.46" />
    <circle cx="17" cy="228" r="1.32" opacity="0.82" />
    <circle cx="24" cy="125" r="1.49" opacity="0.64" />
    <circle cx="119" cy="111" r="1.51" opacity="0.87" />
    <circle cx="71" cy="148" r="0.88" opacity="0.95" />
    <circle cx="163" cy="164" r="0.88" opacity="0.93" />
    <circle cx="113" cy="211" r="0.96" opacity="0.44" />
    <circle cx="89" cy="218" r="1.27" opacity="0.43" />
    <circle cx="176" cy="195" r="1.54" opacity="0.59" />
    <circle cx="213" cy="209" r="0.78" opacity="0.63" />
    <circle cx="242" cy="123" r="1.62" opacity="0.58" />
    <circle cx="73" cy="237" r="1.70" opacity="0.74" />
    <circle cx="213" cy="68" r="1.07" opacity="0.55" />
    <circle cx="169" cy="40" r="1.71" opacity="0.91" />
    <circle cx="47" cy="97" r="0.66" opacity="0.63" />
    <circle cx="20" cy="37" r="0.83" opacity="0.86" />
    <circle cx="111" cy="245" r="0.85" opacity="0.94" />
    <circle cx="155" cy="7" r="0.85" opacity="0.51" />
    <circle cx="60" cy="245" r="1.70" opacity="0.82" />
    <circle cx="104" cy="203" r="1.70" opacity="0.73" />
    <circle cx="144" cy="194" r="1.16" opacity="0.79" />
    <circle cx="157" cy="133" r="1.03" opacity="0.93" />
    <circle cx="238" cy="50" r="1.56" opacity="0.83" />
    <circle cx="163" cy="104" r="1.04" opacity="0.65" />
    <circle cx="113" cy="74" r="0.62" opacity="0.73" />
    <circle cx="213" cy="151" r="0.78" opacity="0.60" />
    <circle cx="194" cy="125" r="1.20" opacity="0.79" />
    <circle cx="172" cy="131" r="1.52" opacity="0.69" />
    <circle cx="251" cy="235" r="0.80" opacity="0.88" />
    <circle cx="86" cy="71" r="1.46" opacity="0.69" />
    <circle cx="30" cy="17" r="1.61" opacity="0.44" />
    <circle cx="24" cy="3" r="1.09" opacity="0.91" />
    <circle cx="118" cy="34" r="1.45" opacity="0.41" />
    <circle cx="233" cy="191" r="0.67" opacity="0.78" />
    <circle cx="247" cy="249" r="0.62" opacity="0.72" />
    <circle cx="210" cy="6" r="0.62" opacity="0.83" />
    <circle cx="146" cy="8" r="1.20" opacity="0.82" />
    <circle cx="220" cy="91" r="0.73" opacity="0.46" />
    <circle cx="76" cy="123" r="0.83" opacity="0.72" />
    <circle cx="181" cy="136" r="1.55" opacity="0.45" />
    <circle cx="207" cy="235" r="1.28" opacity="0.99" />
    <circle cx="115" cy="153" r="1.42" opacity="0.91" />
    <circle cx="16" cy="47" r="1.09" opacity="0.63" />
    <circle cx="243" cy="28" r="1.36" opacity="0.82" />
    <circle cx="42" cy="255" r="1.61" opacity="0.79" />
    <circle cx="169" cy="48" r="1.67" opacity="0.95" />
    <circle cx="117" cy="108" r="1.68" opacity="0.82" />
    <circle cx="243" cy="138" r="0.66" opacity="0.44" />
    <circle cx="143" cy="16" r="0.82" opacity="0.91" />
    <circle cx="8" cy="106" r="1.30" opacity="0.85" />
    <circle cx="203" cy="39" r="0.96" opacity="0.74" />
    <circle cx="199" cy="169" r="1.06" opacity="0.84" />
    <circle cx="40" cy="256" r="1.49" opacity="0.61" />
    <circle cx="50" cy="223" r="0.88" opacity="0.45" />
    <circle cx="203" cy="167" r="0.64" opacity="0.56" />
    <circle cx="230" cy="251" r="0.87" opacity="0.73" />
    <circle cx="192" cy="221" r="0.82" opacity="0.75" />
    <circle cx="194" cy="43" r="1.53" opacity="0.58" />
    <circle cx="126" cy="37" r="0.70" opacity="0.49" />
    <circle cx="78" cy="199" r="0.98" opacity="0.46" />
    <circle cx="2" cy="157" r="1.13" opacity="0.86" />
    <circle cx="52" cy="67" r="0.70" opacity="0.66" />
    <circle cx="208" cy="52" r="0.63" opacity="0.61" />
  </g>
</svg>