<svg xmlns="http://www.w3.org/2000/svg" width="256" height="256" viewBox="0 0 256 256">
  <rect width="256" height="256" fill="#f1e0c6" />
  <g stroke="#cfba9a" stroke-linecap="round" stroke-width="1" opacity="0.18">
    <line x1="27" y1="166" x2="177" y2="153" opacity="0.58" />
    <line x1="178" y1="43" x2="310" y2="80" opacity="0.94" />
    <line x1="104" y1="86" x2="231" y2="75" opacity="0.48" />
    <line x1="134" y1="137" x2="237" y2="111" opacity="0.50" />
    <line x1="121" y1="215" x2="199" y2="214" opacity="0.45" />
    <line x1="108" y1="126" x2="240" y2="137" opacity="0.76" />
    <line x1="80" y1="234" x2="133" y2="220" opacity="0.40" />
    <line x1="182" y1="170" x2="329" y2="182" opacity="0.88" />
    <line x1="148" y1="225" x2="230" y2="221" opacity="0.89" />
    <line x1="49" y1="153" x2="130" y2="158" opacity="0.82" />
    <line x1="225" y1="160" x2="287" y2="180" opacity="0.98" />
    <line x1="129" y1="251" x2="242" y2="273" opacity="0.60" />
    <line x1="123" y1="201" x2="209" y2="177" opacity="0.74" />
    <line x1="259" y1="92" x2="386" y2="115" opacity="0.42" />
    <line x1="216" y1="107" x2="312" y2="127" opacity="0.90" />
    <line x1="15" y1="209" x2="141" y2="208" opacity="0.78" />
    <line x1="103" y1="129" x2="227" y2="98" opacity="0.65" />
    <line x1="173" y1="37" x2="270" y2="70" opacity="0.69" />
    <line x1="185" y1="214" x2="294" y2="178" opacity="0.98" />
    <line x1="254" y1="43" x2="307" y2="52" opacity="0.79" />
    <line x1="161" y1="85" x2="283" y2="94" opacity="0.74" />
    <line x1="184" y1="169" x2="325" y2="162" opacity="0.41" />
    <line x1="112" y1="113" x2="217" y2="131" opacity="0.73" />
    <line x1="274" y1="113" x2="371" y2="104" opacity="0.68" />
    <line x1="236" y1="77" x2="320" y2="106" opacity="0.69" />
    <line x1="131" y1="212" x2="288" y2="262" opacity="0.47" />
    <line x1="52" y1="178" x2="131" y2="169" opacity="0.87" />
    <line x1="246" y1="247" x2="330" y2="245" opacity="0.66" />
    <line x1="211" y1="163" x2="259" y2="156" opacity="0.89" />
    <line x1="38" y1="11" x2="186" y2="-5" opacity="0.47" />
    <line x1="64" y1="124" x2="170" y2="99" opacity="0.50" />
    <line x1="266" y1="218" x2="365" y2="199" opacity="0.64" />
    <line x1="74" y1="95" x2="195" y2="108" opacity="0.64" />
    <line x1="81" y1="230" x2="196" y2="224" opacity="0.40" />
    <line x1="89" y1="105" x2="164" y2="118" opacity="0.89" />
    <line x1="12" y1="52" x2="154" y2="88" opacity="0.51" />
    <line x1="146" y1="100" x2="244" y2="73" opacity="0.80" />
    <line x1="230" y1="160" x2="346" y2="150" opacity="0.64" />
    <line x1="38" y1="178" x2="123" y2="198" opacity="0.77" />
    <line x1="132" y1="43" x2="258" y2="10" opacity="0.47" />
    <line x1="136" y1="59" x2="199" y2="53" opacity="0.48" />
    <line x1="178" y1="214" x2="294" y2="184" opacity="0.63" />
    <line x1="75" y1="249" x2="196" y2="252" opacity="0.95" />
    <line x1="68" y1="85" x2="170" y2="69" opacity="0.51" />
    <line x1="210" y1="27" x2="360" y2="12" opacity="0.41" />
    <line x1="49" y1="99" x2="193" y2="87" opacity="0.74" />
    <line x1="233" y1="209" x2="360" y2="208" opacity="0.83" />
    <line x1="207" y1="250" x2="268" y2="232" opacity="0.42" />
    <line x1="92" y1="149" x2="136" y2="142" opacity="0.72" />
    <line x1="66" y1="234" x2="178" y2="253" opacity="0.86" />
    <line x1="261" y1="57" x2="374" y2="26" opacity="0.87" />
    <line x1="167" y1="21" x2="304" y2="42" opacity="0.73" />
    <line x1="197" y1="52" x2="331" y2="82" opacity="0.85" />
    <line x1="132" y1="16" x2="229" y2="0" opacity="0.92" />
    <line x1="24" y1="224" x2="174" y2="275" opacity="0.87" />
    <line x1="101" y1="107" x2="244" y2="130" opacity="0.81" />
    <line x1="199" y1="84" x2="317" y2="54" opacity="0.52" />
    <line x1="85" y1="30" x2="197" y2="18" opacity="0.57" />
    <line x1="255" y1="86" x2="336" y2="113" opacity="0.58" />
    <line x1="273" y1="136" x2="422" y2="137" opacity="0.94" />
  </g>
  <g fill="#b59b78" opacity="0.2">
    <circle cx="48" cy="69" r="1.76" opacity="0.87" />
    <circle cx="30" cy="141" r="1.64" opacity="0.48" />
    <circle cx="67" cy="127" r="0.78" opacity="0.59" />
    <circle cx="126" cy="201" r="1.19" opacity="0.75" />
    <circle cx="137" cy="212" r="1.05" opacity="0.45" />
    <circle cx="47" cy="206" r="1.22" opacity="0.57" />
    <circle cx="188" cy="232" r="1.74" opacity="0.60" />
    <circle cx="1" cy="47" r="1.48" opacity="0.68" />
    <circle cx="183" cy="32" r="1.55" opacity="0.64" />
    <circle cx="219" cy="108" r="1.19" opacity="0.59" />
    <circle cx="145" cy="172" r="1.26" opacity="0.48" />
    <circle cx="248" cy="175" r="1.67" opacity="0.86" />
    <circle cx="23" cy="50" r="1.35" opacity="0.90" />
    <circle cx="8" cy="63" r="1.72" opacity="0.49" />
    <circle cx="233" cy="0" r="1.79" opacity="0.66" />
    <circle cx="67" cy="154" r="0.79" opacity="0.96" />
    <circle cx="140" cy="47" r="1.39" opacity="0.55" />
    <circle cx="190" cy="84" r="0.66" opacity="0.78" />
    <circle cx="119" cy="219" r="1.39" opacity="0.82" />
    <circle cx="0" cy="109" r="1.17" opacity="0.48" />
    <circle cx="115" cy="227" r="0.61" opacity="0.82" />
    <circle cx="61" cy="216" r="1.43" opacity="0.69" />
    <circle cx="117" cy="196" r="0.71" opacity="0.88" />
    <circle cx="52" cy="160" r="1.04" opacity="0.58" />
    <circle cx="195" cy="68" r="1.37" opacity="0.81" />
    <circle cx="35" cy="4" r="1.33" opacity="0.50" />
    <circle cx="179" cy="109" r="1.35" opacity="0.49" />
    <circle cx="210" cy="226" r="1.63" opacity="0.45" />
    <circle cx="51" cy="71" r="1.50" opacity="0.75" />
    <circle cx="196" cy="179" r="1.76" opacity="0.59" />
    <circle cx="71" cy="126" r="0.93" opacity="0.45" />
    <circle cx="145" cy="13" r="1.62" opacity="0.80" />
    <circle cx="154" cy="105" r="1.22" opacity="0.71" />
    <circle cx="200" cy="151" r="1.38" opacity="0.87" />
    <circle cx="122" cy="253" r="1.06" opacity="0.54" />
    <circle cx="36" cy="6" r="1.78" opacity="0.96" />
    <circle cx="67" cy="198" r="1.63" opacity="0.74" />
    <circle cx="187" cy="88" r="1.52" opacity="0.97" />
    <circle cx="37" cy="8" r="1.30" opacity="0.41" />
    <circle cx="110" cy="20" r="1.71" opacity="0.97" />
    <circle cx="203" cy="146" r="1.35" opacity="0.70" />
    <circle cx="212" cy="216" r="1.44" opacity="0.45" />
    <circle cx="78" cy="142" r="0.70" opacity="0.45" />
    <circle cx="104" cy="79" r="1.24" opacity="0.63" />
    <circle cx="33" cy="158" r="1.44" opacity="0.84" />
    <circle cx="122" cy="29" r="0.89" opacity="0.95" />
    <circle cx="59" cy="232" r="1.33" opacity="0.43" />
    <circle cx="89" cy="61" r="0.62" opacity="0.48" />
    <circle cx="5" cy="83" r="1.20" opacity="0.61" />
    <circle cx="132" cy="85" r="1.05" opacity="0.85" />
    <circle cx="137" cy="60" r="1.53" opacity="0.42" />
    <circle cx="219" cy="139" r="1.23" opacity="0.56" />
    <circle cx="39" cy="254" r="1.15" opacity="0.62" />
    <circle cx="255" cy="85" r="1.04" opacity="0.55" />
    <circle cx="52" cy="59" r="0.87" opacity="0.71" />
    <circle cx="22" cy="6" r="0.89" opacity="0.68" />
    <circle cx="196" cy="76" r="0.81" opacity="0.98" />
    <circle cx="18" cy="214" r="0.87" opacity="0.55" />
    <circle cx="163" cy="138" r="1.59" opacity="0.74" />
    <circle cx="61" cy="26" r="0.82" opacity="0.88" />
    <circle cx="23" cy="205" r="0.68" opacity="0.68" />
    <circle cx="144" cy="159" r="0.99" opacity="0.73" />
    <circle cx="4" cy="188" r="0.84" opacity="0.74" />
    <circle cx="155" cy="124" r="1.16" opacity="0.76" />
    <circle cx="252" cy="100" r="1.48" opacity="0.73" />
    <circle cx="125" cy="77" r="0.61" opacity="0.65" />
    <circle cx="119" cy="177" r="1.36" opacity="0.82" />
    <circle cx="4" cy="171" r="0.60" opacity="0.79" />
    <circle cx="157" cy="53" r="0.85" opacity="0.99" />
    <circle cx="214" cy="251" r="1.75" opacity="0.98" />
    <circle cx="72" cy="143" r="0.71" opacity="0.95" />
    <circle cx="211" cy="190" r="1.15" opacity="0.85" />
    <circle cx="48" cy="68" r="1.36" opacity="0.64" />
    <circle cx="31" cy="222" r="1.39" opacity="0.48" />
    <circle cx="149" cy="133" r="1.62" opacity="0.96" />
    <circle cx="201" cy="167" r="0.98" opacity="0.56" />
    <circle cx="38" cy="103" r="0.76" opacity="0.86" />
    <circle cx="55" cy="79" r="0.73" opacity="0.67" />
    <circle cx="160" cy="208" r="0.74" opacity="0.61" />
    <circle cx="106" cy="231" r="0.97" opacity="0.56" />
    <circle cx="61" cy="46" r="0.79" opacity="0.81" />
    <circle cx="20" cy="110" r="1.60" opacity="0.60" />
    <circle cx="46" cy="127" r="1.76" opacity="0.64" />
    <circle cx="25" cy="153" r="0.91" opacity="0.99" />
    <circle cx="15" cy="207" r="1.63" opacity="0.73" />
    <circle cx="127" cy="48" r="1.15" opacity="0.88" />
    <circle cx="71" cy="62" r="0.61" opacity="0.90" />
    <circle cx="113" cy="66" r="0.84" opacity="0.64" />
    <circle cx="43" cy="132" r="1.70" opacity="0.44" />
    <circle cx="33" cy="101" r="1.68" opacity="0.67" />
    <circle cx="65" cy="47" r="1.69" opacity="0.90" />
    <circle cx="169" cy="62" r="0.65" opacity="0.68" />
    <circle cx="86" cy="221" r="1.59" opacity="0.64" />
    <circle cx="15" cy="195" r="1.42" opacity="0.50" />
    <circle cx="109" cy="95" r="0.93" opacity="0.67" />
    <circle cx="76" cy="17" r="1.34" opacity="0.77" />
    <circle cx="151" cy="255" r="1.09" opacity="0.73" />
    <circle cx="31" cy="44" r="0.94" opacity="0.48" />
    <circle cx="102" cy="127" r="1.36" opacity="0.88" />
    <circle cx="9" cy="195" r="1.54" opacity="0.62" />
    <circle cx="248" cy="176" r="1.70" opacity="0.70" />
    <circle cx="198" cy="138" r="0.82" opacity="0.59" />
    <circle cx="112" cy="15" r="1.67" opacity="0.87" />
    <circle cx="29" cy="241" r="1.24" opacity="0.86" />
    <circle cx="119" cy="81" r="0.72" opacity="0.79" />
    <circle cx="136" cy="28" r="1.52" opacity="0.97" />
    <circle cx="198" cy="181" r="1.72" opacity="0.99" />
    <circle cx="88" cy="90" r="0.88" opacity="0.59" />
    <circle cx="183" cy="14" r="1.44" opacity="0.61" />
    <circle cx="72" cy="96" r="1.60" opacity="0.89" />
    <circle cx="252" cy="158" r="0.81" opacity="0.42" />
    <circle cx="28" cy="119" r="1.32" opacity="0.41" />
    <circle cx="244" cy="0" r="1.00" opacity="0.77" />
    <circle cx="66" cy="174" r="1.46" opacity="0.95" />
    <circle cx="165" cy="30" r="0.63" opacity="0.75" />
    <circle cx="72" cy="56" r="1.62" opacity="0.92" />
    <circle cx="37" cy="191" r="1.45" opacity="0.80" />
    <circle cx="51" cy="172" r="0.96" opacity="0.48" />
    <circle cx="80" cy="223" r="1.55" opacity="0.98" />
    <circle cx="162" cy="89" r="1.45" opacity="0.74" />
  </g>
</svg>